<svg width="36" height="36" viewBox="0 0 36 36" fill="none" xmlns="http://www.w3.org/2000/svg">
<path d="M18 23.8335L17.2929 24.5406L18 25.2477L18.7071 24.5406L18 23.8335ZM19 6.3335C19 5.78121 18.5523 5.3335 18 5.3335C17.4477 5.3335 17 5.78121 17 6.3335L19 6.3335ZM8.54289 15.7906L17.2929 24.5406L18.7071 23.1264L9.95711 14.3764L8.54289 15.7906ZM18.7071 24.5406L27.4571 15.7906L26.0429 14.3764L17.2929 23.1264L18.7071 24.5406ZM19 23.8335L19 6.3335L17 6.3335L17 23.8335L19 23.8335Z" fill="white"/>
<path d="M7.79102 31.125L28.2077 31.125" stroke="white" stroke-width="2"/>
</svg>
