<svg width="24" height="25" viewBox="0 0 24 25" fill="none" xmlns="http://www.w3.org/2000/svg">
<path d="M9 7.14111L13 7.14111" stroke="white" stroke-width="2" stroke-linecap="round"/>
<path d="M9 15.1411L12 15.1411" stroke="white" stroke-width="2" stroke-linecap="round"/>
<path d="M9 11.1411L15 11.1411" stroke="white" stroke-width="2" stroke-linecap="round"/>
<path d="M19 11.1411V9.14111C19 6.31269 19 4.89847 18.1213 4.01979C17.2426 3.14111 15.8284 3.14111 13 3.14111H11C8.17157 3.14111 6.75736 3.14111 5.87868 4.01979C5 4.89847 5 6.31269 5 9.14111V15.1411C5 17.9695 5 19.3838 5.87868 20.2624C6.75736 21.1411 8.17157 21.1411 11 21.1411H12" stroke="white" stroke-width="2"/>
<circle cx="17.5" cy="17.6411" r="2.5" stroke="white" stroke-width="2"/>
<path d="M21 21.1411L19.5 19.6411" stroke="white" stroke-width="2" stroke-linecap="round"/>
</svg>
