<svg width="147" height="147" viewBox="0 0 147 147" fill="none" xmlns="http://www.w3.org/2000/svg">
<g clip-path="url(#clip0_1632_6210)">
<path d="M67.1234 33.2559C66.5162 33.2559 65.9339 33.4971 65.5045 33.9264C65.0752 34.3557 64.834 34.9381 64.834 35.5452C64.834 36.1524 65.0752 36.7347 65.5045 37.1641C65.9339 37.5934 66.5162 37.8346 67.1234 37.8346H69.4127V42.7339C61.3928 43.893 54.1095 48.0465 49.0282 54.3585C43.9468 60.6706 41.4445 68.6729 42.0247 76.7553C42.6049 84.8378 46.2246 92.4006 52.1555 97.9221C58.0863 103.444 65.8883 106.514 73.9915 106.516C80.1357 106.516 86.1504 104.749 91.3192 101.427C96.488 98.1054 100.593 93.3677 103.145 87.7787C105.698 82.1896 106.59 75.9848 105.715 69.9031C104.841 63.8213 102.237 58.1192 98.2131 53.4756C98.2332 53.4576 98.2531 53.4393 98.2726 53.4207L99.8935 51.7998L101.51 53.4207C101.721 53.6393 101.974 53.8137 102.253 53.9337C102.532 54.0537 102.833 54.1169 103.137 54.1195C103.441 54.1222 103.742 54.0642 104.023 53.9491C104.305 53.834 104.56 53.664 104.775 53.4491C104.99 53.2341 105.16 52.9785 105.275 52.6971C105.391 52.4158 105.448 52.1143 105.446 51.8103C105.443 51.5063 105.38 51.2059 105.26 50.9266C105.14 50.6473 104.966 50.3947 104.747 50.1835L98.2726 43.7046C98.0614 43.4859 97.8088 43.3115 97.5295 43.1915C97.2502 43.0715 96.9498 43.0084 96.6458 43.0057C96.3418 43.0031 96.0403 43.061 95.759 43.1761C95.4776 43.2912 95.222 43.4612 95.0071 43.6762C94.7921 43.8911 94.6221 44.1468 94.507 44.4281C94.3919 44.7095 94.334 45.0109 94.3366 45.3149C94.3392 45.6189 94.4024 45.9193 94.5224 46.1986C94.6424 46.4779 94.8168 46.7306 95.0354 46.9417L96.6563 48.5626L95.0354 50.1835C95.0169 50.2016 94.9986 50.2199 94.9805 50.2384C90.3453 46.2127 84.6476 43.6087 78.5702 42.7385V37.8346H80.8596C81.4668 37.8346 82.0491 37.5934 82.4785 37.1641C82.9078 36.7347 83.149 36.1524 83.149 35.5452C83.149 34.9381 82.9078 34.3557 82.4785 33.9264C82.0491 33.4971 81.4668 33.2559 80.8596 33.2559H67.1234ZM76.2809 58.8969V74.4646C76.2809 75.0718 76.0397 75.6541 75.6103 76.0834C75.181 76.5128 74.5987 76.754 73.9915 76.754H57.9659C57.3587 76.754 56.7764 76.5128 56.347 76.0834C55.9177 75.6541 55.6765 75.0718 55.6765 74.4646C55.6765 73.8574 55.9177 73.2751 56.347 72.8458C56.7764 72.4164 57.3587 72.1752 57.9659 72.1752H71.7021V58.8969C71.7021 58.2897 71.9433 57.7074 72.3727 57.278C72.802 56.8487 73.3843 56.6075 73.9915 56.6075C74.5987 56.6075 75.181 56.8487 75.6103 57.278C76.0397 57.7074 76.2809 58.2897 76.2809 58.8969Z" fill="#4269E1"/>
<rect width="26.8274" height="30.3014" transform="translate(53.3809 50.4336)" fill="#4269E1"/>
<path d="M60.3365 73.745C60.3365 70.937 60.944 68.4395 62.159 66.2525C63.374 64.0385 65.0615 62.324 67.2215 61.109C69.4085 59.867 71.879 59.246 74.633 59.246C78.008 59.246 80.897 60.137 83.3 61.919C85.703 63.701 87.3095 66.131 88.1195 69.209H80.5055C79.9385 68.021 79.1285 67.1165 78.0755 66.4955C77.0495 65.8745 75.875 65.564 74.552 65.564C72.419 65.564 70.691 66.3065 69.368 67.7915C68.045 69.2765 67.3835 71.261 67.3835 73.745C67.3835 76.229 68.045 78.2135 69.368 79.6985C70.691 81.1835 72.419 81.926 74.552 81.926C75.875 81.926 77.0495 81.6155 78.0755 80.9945C79.1285 80.3735 79.9385 79.469 80.5055 78.281H88.1195C87.3095 81.359 85.703 83.789 83.3 85.571C80.897 87.326 78.008 88.2035 74.633 88.2035C71.879 88.2035 69.4085 87.596 67.2215 86.381C65.0615 85.139 63.374 83.4245 62.159 81.2375C60.944 79.0505 60.3365 76.553 60.3365 73.745Z" fill="white"/>
</g>
<path d="M130.574 73.4292C130.574 104.917 105.049 130.442 73.5611 130.442C42.0735 130.442 16.5479 104.917 16.5479 73.4292C16.5479 41.9417 42.0735 16.416 73.5611 16.416C105.049 16.416 130.574 41.9417 130.574 73.4292ZM26.4801 73.4292C26.4801 99.4313 47.559 120.51 73.5611 120.51C99.5631 120.51 120.642 99.4313 120.642 73.4292C120.642 47.4271 99.5631 26.3483 73.5611 26.3483C47.559 26.3483 26.4801 47.4271 26.4801 73.4292Z" fill="#4269E1"/>
<path d="M147 73.5C147 114.093 114.093 147 73.5 147C32.9071 147 0 114.093 0 73.5C0 32.9071 32.9071 0 73.5 0C114.093 0 147 32.9071 147 73.5ZM5.74114 73.5C5.74114 110.922 36.0778 141.259 73.5 141.259C110.922 141.259 141.259 110.922 141.259 73.5C141.259 36.0778 110.922 5.74114 73.5 5.74114C36.0778 5.74114 5.74114 36.0778 5.74114 73.5Z" fill="#4269E1"/>
<defs>
<clipPath id="clip0_1632_6210">
<rect width="73.26" height="73.26" fill="white" transform="translate(37.3613 33.2559)"/>
</clipPath>
</defs>
</svg>
